<svg xmlns="http://www.w3.org/2000/svg" viewBox="0 0 32 32" width="24" height="24">
  <circle cx="16" cy="16" r="14" fill="#6366f1"/>
  <g fill="#fff">
    <circle cx="16" cy="16" r="6"/>
    <rect x="15" y="4" width="2" height="6" rx="1"/>
    <rect x="15" y="22" width="2" height="6" rx="1"/>
    <rect x="4" y="15" width="6" height="2" rx="1"/>
    <rect x="22" y="15" width="6" height="2" rx="1"/>
    <rect x="7.22" y="7.22" width="2" height="6" rx="1" transform="rotate(-45 8.22 10.22)"/>
    <rect x="22.78" y="22.78" width="2" height="6" rx="1" transform="rotate(-45 23.78 25.78)"/>
    <rect x="7.22" y="18.78" width="2" height="6" rx="1" transform="rotate(45 8.22 21.78)"/>
    <rect x="22.78" y="3.22" width="2" height="6" rx="1" transform="rotate(45 23.78 6.22)"/>
  </g>
</svg>
